<svg width="40" height="46" viewBox="0 0 40 46" fill="none" xmlns="http://www.w3.org/2000/svg">
<g id="&#240;&#159;&#166;&#134; icon &#34;lock&#34;">
<path id="Vector" d="M35.7143 20H33.5714V13.5714C33.5714 6.08929 27.4821 0 20 0C12.5179 0 6.42857 6.08929 6.42857 13.5714V20H4.28571C1.91964 20 0 21.9196 0 24.2857V41.4286C0 43.7946 1.91964 45.7143 4.28571 45.7143H35.7143C38.0804 45.7143 40 43.7946 40 41.4286V24.2857C40 21.9196 38.0804 20 35.7143 20ZM26.4286 20H13.5714V13.5714C13.5714 10.0268 16.4554 7.14286 20 7.14286C23.5446 7.14286 26.4286 10.0268 26.4286 13.5714V20Z" fill="black" fill-opacity="0.2"/>
</g>
</svg>
