<svg width="40" height="24" viewBox="0 0 40 24" fill="none" xmlns="http://www.w3.org/2000/svg">
<g id="&#240;&#159;&#166;&#134; icon &#34;Signature&#34;">
<path id="Vector" d="M38.9619 8.00367C35.7233 8.22249 31.1029 11.4236 28.7646 12.474C26.9452 13.293 25.3759 13.9995 24.0067 13.9995C22.5937 13.9995 22.3811 12.9867 22.675 10.7546C22.7437 10.2545 23.4065 5.8029 20.0053 5.99672C18.436 6.0905 15.9851 7.54726 9.40784 13.8745L12.0025 7.39095C13.9032 2.64555 8.67633 -2.0811 3.89341 0.963711L0.460965 3.27077C-0.00169646 3.56462 -0.139244 4.18358 0.154608 4.6525L1.22998 6.34059C1.52384 6.8095 2.1428 6.94705 2.61172 6.64694L6.23798 4.21484C7.38838 3.48334 8.78262 4.665 8.28244 5.90919L2.1428 21.2645C1.71765 22.3212 2.31161 24.0093 3.9997 24.0093C4.51863 24.0093 5.03131 23.8092 5.41269 23.4215C8.05111 20.7831 15.0848 13.9995 18.6173 11.1798C18.4798 12.9616 18.486 14.8623 19.9052 16.4191C20.8618 17.4695 22.2373 18.0009 24.0004 18.0009C26.2262 18.0009 28.2519 17.0881 30.3964 16.1252C32.4596 15.1999 36.5861 12.2114 39.0494 12.0113C39.5809 11.9676 39.9998 11.5549 39.9998 11.0235V9.01652C40.0123 8.44757 39.5308 7.96615 38.9619 8.00367Z" fill="black" fill-opacity="0.2"/>
</g>
</svg>
