<svg width="36" height="43" viewBox="0 0 36 43" fill="none" xmlns="http://www.w3.org/2000/svg">
<path d="M32.1145 13.6767L34.1582 11.6555C34.5811 11.2327 34.8187 10.6591 34.8187 10.061C34.8187 9.46299 34.5811 8.88943 34.1582 8.46655C33.7353 8.04366 33.1618 7.80608 32.5637 7.80608C31.9656 7.80608 31.3921 8.04366 30.9692 8.46655L28.948 10.5102C25.8007 8.07545 21.9341 6.75445 17.955 6.75445C13.9758 6.75445 10.1093 8.07545 6.96194 10.5102L4.91829 8.44409C4.49243 8.0212 3.91601 7.78481 3.31586 7.78692C2.7157 7.78902 2.14096 8.02945 1.71807 8.45532C1.29518 8.88118 1.05879 9.4576 1.0609 10.0578C1.06301 10.6579 1.30344 11.2327 1.7293 11.6555L3.79541 13.6992C1.33183 16.8377 -0.00490288 20.7135 5.89042e-05 24.7035C-0.00727507 27.5678 0.670339 30.3923 1.97639 32.9415C3.28244 35.4907 5.17906 37.6908 7.50809 39.3581C9.83712 41.0254 12.531 42.1117 15.3652 42.5263C18.1993 42.941 21.0915 42.672 23.8006 41.7419C26.5097 40.8117 28.9571 39.2472 30.9387 37.1791C32.9203 35.1109 34.3788 32.5988 35.1923 29.8525C36.0059 27.1062 36.151 24.2051 35.6157 21.3913C35.0803 18.5774 33.8799 15.9324 32.1145 13.6767ZM17.9662 38.1781C15.3012 38.1781 12.696 37.3878 10.4801 35.9072C8.26422 34.4266 6.53715 32.3221 5.51729 29.86C4.49743 27.3978 4.23059 24.6885 4.75051 22.0747C5.27043 19.4609 6.55376 17.0599 8.43822 15.1755C10.3227 13.291 12.7236 12.0077 15.3374 11.4878C17.9513 10.9678 20.6606 11.2347 23.1227 12.2545C25.5849 13.2744 27.6893 15.0015 29.1699 17.2174C30.6505 19.4332 31.4408 22.0384 31.4408 24.7035C31.4408 28.2771 30.0212 31.7045 27.4942 34.2314C24.9672 36.7584 21.5399 38.1781 17.9662 38.1781ZM13.4747 4.49154H22.4577C23.0534 4.49154 23.6246 4.25493 24.0457 3.83377C24.4669 3.4126 24.7035 2.84138 24.7035 2.24577C24.7035 1.65015 24.4669 1.07893 24.0457 0.65777C23.6246 0.236607 23.0534 0 22.4577 0H13.4747C12.8791 0 12.3078 0.236607 11.8867 0.65777C11.4655 1.07893 11.2289 1.65015 11.2289 2.24577C11.2289 2.84138 11.4655 3.4126 11.8867 3.83377C12.3078 4.25493 12.8791 4.49154 13.4747 4.49154ZM20.212 17.9661C20.212 17.3705 19.9754 16.7993 19.5542 16.3781C19.133 15.957 18.5618 15.7204 17.9662 15.7204C17.3706 15.7204 16.7994 15.957 16.3782 16.3781C15.957 16.7993 15.7204 17.3705 15.7204 17.9661V22.2106C15.2119 22.6655 14.8535 23.264 14.6926 23.927C14.5317 24.59 14.5759 25.2862 14.8193 25.9235C15.0627 26.5608 15.494 27.1092 16.0559 27.4961C16.6178 27.883 17.284 28.0901 17.9662 28.0901C18.6484 28.0901 19.3146 27.883 19.8765 27.4961C20.4385 27.1092 20.8697 26.5608 21.1131 25.9235C21.3565 25.2862 21.4007 24.59 21.2398 23.927C21.0789 23.264 20.7205 22.6655 20.212 22.2106V17.9661Z" fill="black"/>
</svg>
