<svg width="250" height="250" viewBox="0 0 250 250" fill="none" xmlns="http://www.w3.org/2000/svg">
<path d="M172.386 125L243.459 53.9276C252.18 45.206 252.18 31.0653 243.459 22.3366L227.663 6.54119C218.942 -2.1804 204.801 -2.1804 196.072 6.54119L125 77.6136L53.9276 6.54119C45.206 -2.1804 31.0653 -2.1804 22.3366 6.54119L6.54119 22.3366C-2.1804 31.0582 -2.1804 45.1989 6.54119 53.9276L77.6136 125L6.54119 196.072C-2.1804 204.794 -2.1804 218.935 6.54119 227.663L22.3366 243.459C31.0582 252.18 45.206 252.18 53.9276 243.459L125 172.386L196.072 243.459C204.794 252.18 218.942 252.18 227.663 243.459L243.459 227.663C252.18 218.942 252.18 204.801 243.459 196.072L172.386 125Z" fill="#FF0000"/>
</svg>
